<?xml version="1.0" encoding="UTF-8"?>
<svg version="1.1" xmlns="http://www.w3.org/2000/svg" width="668" height="538">
<path d="M0 0 C220.44 0 440.88 0 668 0 C668 177.54 668 355.08 668 538 C447.56 538 227.12 538 0 538 C0 360.46 0 182.92 0 0 Z " fill="#3D0320" transform="translate(0,0)"/>
<path d="M0 0 C3.16744396 1.80858632 6.09007173 3.8055293 9 6 C9.886875 6.598125 10.77375 7.19625 11.6875 7.8125 C20.01553366 15.69036968 24.729127 27.36775497 25.1328125 38.7421875 C25.13544654 40.11979161 25.13272478 41.49741503 25.125 42.875 C25.12886719 43.55691406 25.13273437 44.23882812 25.13671875 44.94140625 C25.12824419 49.39055248 24.72218388 53.60958055 24 58 C24.80107178 57.97905273 25.60214355 57.95810547 26.42749023 57.93652344 C30.09736309 57.852786 33.76703416 57.80115632 37.4375 57.75 C38.69755859 57.71648437 39.95761719 57.68296875 41.25585938 57.6484375 C50.85859949 57.54814779 58.16915621 58.81103108 65.375 65.5 C66.00148438 66.0671875 66.62796875 66.634375 67.2734375 67.21875 C75.40727523 75.6102206 75.56016719 87.0584717 76.1875 98.1875 C76.26790527 99.48510254 76.34831055 100.78270508 76.43115234 102.11962891 C77.13758101 114.08167452 77.20074014 126.02250517 77 138 C70.4 138 63.8 138 57 138 C56.87882812 135.02355469 56.75765625 132.04710937 56.6328125 128.98046875 C56.50882604 126.0644519 56.38222083 123.14855955 56.25537109 120.23266602 C56.16930511 118.22236448 56.08591723 116.21194628 56.00537109 114.20141602 C56.37086769 96.6747129 56.37086769 96.6747129 50.7109375 80.86328125 C45.79049683 77.54460106 39.31790252 78.21525521 33.625 78.1875 C31.80548828 78.14979492 31.80548828 78.14979492 29.94921875 78.11132812 C26.9658196 78.0525998 23.98388307 78.0162133 21 78 C21.01015137 78.66459229 21.02030273 79.32918457 21.03076172 80.01391602 C21.1088476 88.75236367 21.1088476 88.75236367 20.125 92.9375 C19.50987294 95.59468152 18.98245902 98.15126517 18.66796875 100.86328125 C18.06440556 105.76474496 17.48552315 109.20304724 13.8125 112.6875 C11.09456793 114.64101367 9.7449345 115.04323144 6.3125 115.625 C2.51786369 114.90903088 1.31522203 114.02759804 -1 111 C-4.79750754 103.40498492 0.50342136 80.80710288 1 77 C-19.46 77 -39.92 77 -61 77 C-61.99 86.57 -62.98 96.14 -64 106 C-67 113 -67 113 -69.25 114.4375 C-72.68100419 115.13929631 -75.50672504 115.38108454 -79 115 C-81.36497439 113.13291495 -82.66030715 111.67938569 -84 109 C-84.98496751 98.56313276 -82.79818138 88.2325083 -81 78 C-84.85499569 78.08142773 -88.70847275 78.19422354 -92.5625 78.3125 C-93.64853516 78.33505859 -94.73457031 78.35761719 -95.85351562 78.38085938 C-103.67741694 78.64244878 -108.91550357 79.09593372 -114.8046875 84.640625 C-117.58902812 88.33334821 -118.32658804 92.27148122 -119.125 96.75 C-119.44501587 98.36385917 -119.76791043 99.97715031 -120.09375 101.58984375 C-120.24585938 102.3566748 -120.39796875 103.12350586 -120.5546875 103.91357422 C-121.09306552 106.43604052 -121.81812365 108.86363029 -122.625 111.3125 C-124.22323387 116.25406634 -124.84242777 121.26629141 -125.47265625 126.41015625 C-125.64667969 127.26480469 -125.82070312 128.11945313 -126 129 C-126.66 129.33 -127.32 129.66 -128 130 C-128.62852934 132.33247815 -129.15535246 134.69291467 -129.625 137.0625 C-129.88539063 138.35285156 -130.14578125 139.64320313 -130.4140625 140.97265625 C-130.60742188 141.97167969 -130.80078125 142.97070312 -131 144 C-129.989375 144.268125 -128.97875 144.53625 -127.9375 144.8125 C-117.95839017 147.7272907 -117.95839017 147.7272907 -115.34741211 151.19458008 C-113.78166211 154.45459696 -113.45641123 156.97151519 -113.19140625 160.57421875 C-113.08634766 161.86908203 -112.98128906 163.16394531 -112.87304688 164.49804688 C-112.82269287 165.18116943 -112.77233887 165.86429199 -112.72045898 166.56811523 C-112.45147816 170.17711456 -112.13570907 173.78186959 -111.81640625 177.38671875 C-111.75216461 178.11470673 -111.68792297 178.8426947 -111.62173462 179.59274292 C-110.24790957 194.65645171 -107.67496355 209.6491068 -104.515625 224.4375 C-103.86757389 228.914944 -104 233.47590064 -104 238 C-49.55 238 4.9 238 61 238 C60.34 220.51 59.68 203.02 59 185 C59 180.71 59 176.42 59 172 C57.18200394 172.01332367 55.36400787 172.02664734 53.49092102 172.04037476 C36.37768068 172.16188087 19.26452744 172.25224939 2.15095234 172.31087303 C-6.64783232 172.34181478 -15.44629503 172.38400104 -24.24487305 172.45263672 C-31.91349956 172.5124294 -39.58189293 172.55114684 -47.25074607 172.56453097 C-51.31170595 172.57235513 -55.37199884 172.59074901 -59.43274498 172.63438034 C-63.2553619 172.67512012 -67.07703745 172.68766684 -70.89985085 172.67864609 C-72.30234011 172.68029618 -73.70486098 172.69222463 -75.10716248 172.71523285 C-85.66507322 172.87995795 -85.66507322 172.87995795 -88.94251442 170.71953201 C-90.99828556 168.36858391 -91.96641332 166.12874893 -92.75 163.125 C-91.55515048 158.14646034 -89.18874484 154.96214836 -85 152 C-79.98018793 150.80900774 -75.02701975 150.92470175 -69.90429688 150.99658203 C-68.36782352 150.98900873 -66.83136384 150.9780029 -65.29493713 150.96383667 C-61.1353394 150.93597894 -56.97740096 150.95822552 -52.81789589 150.9912591 C-48.45829696 151.01902445 -44.09879125 151.00603271 -39.73913574 150.99899292 C-32.41875566 150.9935936 -25.09903236 151.02049595 -17.77880859 151.06689453 C-9.32437446 151.12011243 -0.87103814 151.12360725 7.58350611 151.1001178 C15.72776442 151.07853331 23.87162694 151.09095857 32.01585388 151.11922836 C35.47669367 151.13072337 38.93724263 151.13060248 42.39808655 151.12109756 C46.47629018 151.11152781 50.55329714 151.13188045 54.63127327 151.17500687 C56.12475104 151.18610281 57.6183443 151.18710947 59.11182976 151.17710114 C71.77166465 151.10292425 71.77166465 151.10292425 76.3833313 154.69755554 C79.00586999 157.52833612 79.89230891 159.7300339 79.96240234 163.6472168 C79.99868744 164.73242111 80.03497253 165.81762543 80.07235718 166.93571472 C80.07907944 168.67489922 80.07907944 168.67489922 80.0859375 170.44921875 C80.11805328 171.65761917 80.15016907 172.86601959 80.18325806 174.11103821 C80.27916923 177.96993061 80.32828494 181.82772824 80.375 185.6875 C80.45366157 189.52864591 80.54179734 193.3694899 80.63101196 197.21040344 C80.68288985 199.59661792 80.72679723 201.98302399 80.76132202 204.36955261 C80.85806767 210.5008431 81.16276874 216.54381103 81.77197266 222.64570618 C82.22682299 227.34185935 82.26566823 232.03560225 82.3125 236.75 C82.34150391 237.73871094 82.37050781 238.72742188 82.40039062 239.74609375 C82.45510337 246.05068524 81.95764432 249.98567121 78 255 C73.45307409 257.83339859 69.61375928 258.42712036 64.36904907 258.36076355 C63.62071599 258.36332682 62.87238292 258.3658901 62.10137308 258.36853105 C59.60463198 258.37345555 57.10850139 258.35699851 54.61181641 258.34057617 C52.81785089 258.33972961 51.02388434 258.34020561 49.22991943 258.34190369 C44.36670217 258.34276392 39.50370719 258.32513345 34.64054155 258.30418181 C29.55565043 258.28541985 24.47075414 258.28366495 19.38583374 258.28010559 C9.75992454 258.27078373 0.13411763 258.24616798 -9.49174654 258.21605712 C-20.45175948 258.18251756 -31.41177731 258.16602821 -42.37182879 258.15097082 C-64.91460923 258.11961859 -87.45729888 258.06685528 -110 258 C-110.29003906 258.60328125 -110.58007812 259.2065625 -110.87890625 259.828125 C-112 262 -112 262 -113.9375 264.75 C-115.5834181 267.34356792 -116.60598433 269.37041813 -117.62890625 272.203125 C-117.88873291 272.91629883 -118.14855957 273.62947266 -118.41625977 274.36425781 C-118.70521118 275.1739502 -118.70521118 275.1739502 -119 276 C-118.02263445 275.99815641 -117.0452689 275.99631283 -116.03828621 275.99441338 C-92.28715089 275.95006873 -68.53602092 275.9171744 -44.78485298 275.89637566 C-33.29909929 275.88605092 -21.81337289 275.87196778 -10.32763672 275.84912109 C-0.31990379 275.8292238 9.68780937 275.81629228 19.69556153 275.81182301 C24.99750408 275.80920941 30.29939007 275.80304159 35.60131454 275.78853989 C40.58673433 275.77501373 45.57207399 275.77076724 50.55751038 275.77378464 C52.39176493 275.77323224 54.22602203 275.76922533 56.06026077 275.76158905 C58.55572592 275.75170539 61.05088463 275.75400682 63.5463562 275.75949097 C64.64653794 275.75075244 64.64653794 275.75075244 65.76894557 275.74183738 C70.77175758 275.77175758 70.77175758 275.77175758 73 278 C73.44140625 280.86328125 73.44140625 280.86328125 73 284 C70.83984375 286.23046875 70.83984375 286.23046875 67.9375 288.1875 C66.44089844 289.19876953 66.44089844 289.19876953 64.9140625 290.23046875 C61.66011571 292.20639086 58.58040147 293.72696837 55 295 C55.165 295.61875 55.33 296.2375 55.5 296.875 C56.77108133 304.81925831 56.65373551 311.21710445 52 318 C48.13478899 322.49200199 43.27172737 326.90942421 37.5625 328.8125 C36.2940625 328.9053125 36.2940625 328.9053125 35 329 C33.7625 329.103125 32.525 329.20625 31.25 329.3125 C24.95983341 329.21737461 19.87171713 326.51330321 15.0625 322.625 C11.32057901 317.8625551 10.77955598 313.40637648 10.63671875 307.5390625 C11 305 11 305 14 297 C4.43 297 -5.14 297 -15 297 C-15.33 299.31 -15.66 301.62 -16 304 C-17.015625 306.1796875 -17.015625 306.1796875 -18.25 307.875 C-18.64703125 308.44992187 -19.0440625 309.02484375 -19.453125 309.6171875 C-21 311 -21 311 -26 312 C-26 323.55 -26 335.1 -26 347 C43.96 347 113.92 347 186 347 C186 344.36 186 341.72 186 339 C191.94 339 197.88 339 204 339 C204 344.94 204 350.88 204 357 C201.69 357 199.38 357 197 357 C197 377.79 197 398.58 197 420 C199.31 420 201.62 420 204 420 C204 425.61 204 431.22 204 437 C198.39 437 192.78 437 187 437 C187 434.69 187 432.38 187 430 C45.1 430 -96.8 430 -243 430 C-243 432.64 -243 435.28 -243 438 C-248.94 438 -254.88 438 -261 438 C-261 432.06 -261 426.12 -261 420 C-258.36 420 -255.72 420 -253 420 C-253 399.21 -253 378.42 -253 357 C-255.64 357 -258.28 357 -261 357 C-261 351.06 -261 345.12 -261 339 C-255.06 339 -249.12 339 -243 339 C-243 341.64 -243 344.28 -243 347 C-172.38 347 -101.76 347 -29 347 C-29 335.12 -29 323.24 -29 311 C-30.65 310.67 -32.3 310.34 -34 310 C-34 309.34 -34 308.68 -34 308 C-34.598125 307.731875 -35.19625 307.46375 -35.8125 307.1875 C-38.1040169 305.94353368 -39.4830937 305.12366882 -41 303 C-41 301.02 -41 299.04 -41 297 C-50.9 297 -60.8 297 -71 297 C-70.9213221 302.04062956 -70.9213221 302.04062956 -70.81982422 307.08081055 C-70.78792041 311.15060502 -70.94337013 314.4383529 -73 318 C-73.99 318.33 -74.98 318.66 -76 319 C-77.11375 320.1446875 -77.11375 320.1446875 -78.25 321.3125 C-82.96666338 325.92196648 -88.40503514 329.08368399 -95.125 329.3125 C-101.76181418 329.22602685 -106.8366093 326.74912439 -111.9375 322.625 C-116.19514168 317.20618332 -116.52035087 311.65565066 -116 305 C-115.69819971 303.65917732 -115.37401008 302.32249966 -115 301 C-114.34 301 -113.68 301 -113 301 C-112.67 299.35 -112.34 297.7 -112 296 C-112.6297876 296.04189453 -113.2595752 296.08378906 -113.90844727 296.12695312 C-116.79246822 296.2943731 -119.67546823 296.39761002 -122.5625 296.5 C-124.0484668 296.60054688 -124.0484668 296.60054688 -125.56445312 296.703125 C-129.75229143 296.81442967 -132.76959967 296.88049565 -136.25268555 294.38793945 C-139.03908904 291.40303883 -140.74487671 288.93464599 -141.82421875 284.98046875 C-141.18748369 271.97288112 -136.2784689 260.85393419 -127.5625 251.1875 C-124.70727358 247.54411212 -124.73454111 244.87317837 -125.0625 240.3125 C-125.43411321 237.35729019 -125.89615352 234.47570851 -126.53125 231.56640625 C-127.13655809 228.25234448 -127.27296885 224.98949409 -127.4375 221.625 C-128.01590588 211.36242703 -129.19609813 201.28011824 -131.5 191.25 C-133.46020883 182.59324017 -134.20034163 173.8244653 -135 165 C-136.26457031 164.86722656 -137.52914062 164.73445312 -138.83203125 164.59765625 C-140.49220625 164.41944537 -142.15236148 164.24105037 -143.8125 164.0625 C-145.06256836 163.93198242 -145.06256836 163.93198242 -146.33789062 163.79882812 C-147.54155273 163.66831055 -147.54155273 163.66831055 -148.76953125 163.53515625 C-149.50792236 163.456604 -150.24631348 163.37805176 -151.00708008 163.29711914 C-153 163 -153 163 -156 162 C-156 161.34 -156 160.68 -156 160 C-156.82564453 159.92652344 -156.82564453 159.92652344 -157.66796875 159.8515625 C-159.51449697 159.6855181 -161.36082382 159.51723028 -163.20703125 159.34765625 C-165.26202505 159.15929945 -167.31709584 158.97174264 -169.37255859 158.78857422 C-179.01202984 157.92820072 -188.59123037 157.03774618 -198.140625 155.4296875 C-201.05479754 154.9917654 -203.93567654 154.76110294 -206.875 154.5625 C-212.52214338 154.07681274 -217.01702345 153.23884449 -220.9375 148.8125 C-222.34112424 145.09702408 -222.8967733 141.86592186 -222 138 C-220.47010523 135.1621952 -218.78254619 133.60292995 -216 132 C-209.54185448 131.16279327 -202.83767179 132.24209016 -196.4375 133.1875 C-195.53435059 133.31552002 -194.63120117 133.44354004 -193.70068359 133.57543945 C-179.45293787 135.61737367 -165.22659844 137.81637654 -151 140 C-150.67846308 138.41951944 -150.35844827 136.83872917 -150.0390625 135.2578125 C-149.86068848 134.37754395 -149.68231445 133.49727539 -149.49853516 132.59033203 C-148.88502282 129.40259162 -148.41979629 126.21843824 -148 123 C-147.34 123 -146.68 123 -146 123 C-145.87882812 122.35933594 -145.75765625 121.71867187 -145.6328125 121.05859375 C-144.88004904 117.17317618 -144.10625773 113.36526093 -143 109.5625 C-142.18545367 106.66067871 -141.65455581 103.96384012 -141.1875 101 C-138.47133508 85.81037004 -133.23358286 73.73370926 -121.015625 63.88671875 C-111.15137708 57.71517504 -103.44026417 56.31016367 -91.8125 56.6875 C-90.46553687 56.7126511 -89.11852773 56.7354521 -87.77148438 56.75585938 C-84.51311704 56.81425305 -81.25717994 56.89610526 -78 57 C-78.00580078 56.33178223 -78.01160156 55.66356445 -78.01757812 54.97509766 C-78.0243457 53.64551025 -78.0243457 53.64551025 -78.03125 52.2890625 C-78.03705078 51.41459473 -78.04285156 50.54012695 -78.04882812 49.63916016 C-77.79194835 35.75480834 -70.39940647 22.23843449 -60.83984375 12.47265625 C-53.21438781 5.83316023 -44.84978266 0.55572012 -35 -2 C-34.09507812 -2.34417969 -33.19015625 -2.68835938 -32.2578125 -3.04296875 C-21.86169078 -6.09698532 -9.65871201 -4.63731976 0 0 Z " fill="#F46BB2" transform="translate(377,70)"/>
<path d="M0 0 C141.9 0 283.8 0 430 0 C430 2.64 430 5.28 430 8 C432.64 8 435.28 8 438 8 C438 9.32 438 10.64 438 12 C426.45 12 414.9 12 403 12 C402.67 14.64 402.34 17.28 402 20 C405.3 20 408.6 20 412 20 C412.02701408 22.10409639 412.04640223 24.20829178 412.0625 26.3125 C412.07410156 27.48425781 412.08570313 28.65601563 412.09765625 29.86328125 C412 33 412 33 411 36 C410.34 36 409.68 36 409 36 C408.95101563 36.62003906 408.90203125 37.24007812 408.8515625 37.87890625 C408.16891508 45.96474728 407.10606204 53.96261587 406 62 C410.95 62 415.9 62 421 62 C421.1134375 60.47375 421.226875 58.9475 421.34375 57.375 C421.96963997 50.49902565 423.20663966 43.77720819 424.5 37 C424.72558594 35.78699219 424.95117188 34.57398438 425.18359375 33.32421875 C426.85419324 24.43742028 426.85419324 24.43742028 428 21 C430.97 21 433.94 21 437 21 C437 37.5 437 54 437 71 C439.97 71.33 442.94 71.66 446 72 C446 76.95 446 81.9 446 87 C441.05 87 436.1 87 431 87 C431 84.69 431 82.38 431 80 C288.77 80 146.54 80 0 80 C0 77.03 0 74.06 0 71 C-2.64 71 -5.28 71 -8 71 C-8 68.03 -8 65.06 -8 62 C-6.96593018 61.99589111 -5.93186035 61.99178223 -4.86645508 61.98754883 C-1.01748302 61.96572133 2.83047198 61.91139574 6.67895508 61.84741211 C8.34226712 61.82426334 10.0057251 61.80984369 11.66918945 61.80444336 C14.06553751 61.7951302 16.45960059 61.75409449 18.85546875 61.70703125 C19.96513252 61.71293022 19.96513252 61.71293022 21.09721375 61.71894836 C25.00723994 61.60928153 26.83789443 61.12654658 29.95385742 58.6940918 C32.58398957 55.23107923 32.95416365 52.2087864 33.125 48 C33.19203125 47.30132812 33.2590625 46.60265625 33.328125 45.8828125 C33.5390857 42.15584015 33.18417996 40.25857422 31.0078125 37.203125 C27.40361408 34.56316668 23.95776395 33.15763326 19.75 31.75 C12.07432432 29.07432432 12.07432432 29.07432432 11 28 C10.875 24.5 10.875 24.5 11 21 C12 20 12 20 14.28515625 19.90234375 C15.65994141 19.91974609 15.65994141 19.91974609 17.0625 19.9375 C17.98160156 19.94652344 18.90070313 19.95554687 19.84765625 19.96484375 C20.55792969 19.97644531 21.26820313 19.98804688 22 20 C22 22.31 22 24.62 22 27 C26.95 26.67 31.9 26.34 37 26 C37 22.04 37 18.08 37 14 C33.96510104 12.48255052 30.80324014 12.8164262 27.47265625 12.796875 C26.72793564 12.79117493 25.98321503 12.78547485 25.21592712 12.77960205 C23.63981549 12.77015209 22.06368409 12.76361808 20.48754883 12.75976562 C18.07533397 12.75005168 15.66396823 12.71902639 13.25195312 12.6875 C11.72135923 12.68097068 10.19075924 12.67571993 8.66015625 12.671875 C7.93820572 12.6595282 7.21625519 12.6471814 6.47242737 12.63446045 C2.53898968 12.64257641 2.53898968 12.64257641 -0.91625977 14.33300781 C-3.39541282 18.14640205 -3.31236234 22.29573878 -3.5625 26.6875 C-3.62727539 27.7403418 -3.62727539 27.7403418 -3.69335938 28.81445312 C-3.7991736 30.54275206 -3.90006581 32.2713511 -4 34 C-3.03513672 34.38285156 -3.03513672 34.38285156 -2.05078125 34.7734375 C1.91336341 36.36721653 5.86269202 37.99607668 9.8125 39.625 C10.60076172 39.94984375 11.38902344 40.2746875 12.20117188 40.609375 C14.13420912 41.40602065 16.06711749 42.20297899 18 43 C18.125 50.625 18.125 50.625 17 54 C13.7 54 10.4 54 7 54 C7 51.69 7 49.38 7 47 C2.05 47 -2.9 47 -8 47 C-8 34.13 -8 21.26 -8 8 C-5.36 8 -2.72 8 0 8 C0 5.36 0 2.72 0 0 Z " fill="#410824" transform="translate(134,419)"/>
<path d="M0 0 C3.16744396 1.80858632 6.09007173 3.8055293 9 6 C9.886875 6.598125 10.77375 7.19625 11.6875 7.8125 C20.01553366 15.69036968 24.729127 27.36775497 25.1328125 38.7421875 C25.13544654 40.11979161 25.13272478 41.49741503 25.125 42.875 C25.12886719 43.55691406 25.13273438 44.23882812 25.13671875 44.94140625 C25.12824419 49.39055248 24.72218388 53.60958055 24 58 C24.80107178 57.97905273 25.60214355 57.95810547 26.42749023 57.93652344 C30.09736309 57.852786 33.76703416 57.80115632 37.4375 57.75 C38.69755859 57.71648437 39.95761719 57.68296875 41.25585938 57.6484375 C50.85859949 57.54814779 58.16915621 58.81103108 65.375 65.5 C66.00148438 66.0671875 66.62796875 66.634375 67.2734375 67.21875 C75.40727523 75.6102206 75.56016719 87.0584717 76.1875 98.1875 C76.26790527 99.48510254 76.34831055 100.78270508 76.43115234 102.11962891 C77.13758101 114.08167452 77.20074014 126.02250517 77 138 C70.4 138 63.8 138 57 138 C56.87882813 135.02355469 56.75765625 132.04710937 56.6328125 128.98046875 C56.50882604 126.0644519 56.38222083 123.14855955 56.25537109 120.23266602 C56.16930511 118.22236448 56.08591723 116.21194628 56.00537109 114.20141602 C56.37086769 96.6747129 56.37086769 96.6747129 50.7109375 80.86328125 C45.79049683 77.54460106 39.31790252 78.21525521 33.625 78.1875 C31.80548828 78.14979492 31.80548828 78.14979492 29.94921875 78.11132812 C26.9658196 78.0525998 23.98388307 78.0162133 21 78 C21.01015137 78.66459229 21.02030273 79.32918457 21.03076172 80.01391602 C21.1088476 88.75236367 21.1088476 88.75236367 20.125 92.9375 C19.50987294 95.59468152 18.98245902 98.15126517 18.66796875 100.86328125 C18.06440556 105.76474496 17.48552315 109.20304724 13.8125 112.6875 C11.09456793 114.64101367 9.7449345 115.04323144 6.3125 115.625 C2.51786369 114.90903088 1.31522203 114.02759804 -1 111 C-4.79750754 103.40498492 0.50342136 80.80710288 1 77 C-19.46 77 -39.92 77 -61 77 C-61.99 86.57 -62.98 96.14 -64 106 C-67 113 -67 113 -69.25 114.4375 C-72.68100419 115.13929631 -75.50672504 115.38108454 -79 115 C-81.36497439 113.13291495 -82.66030715 111.67938569 -84 109 C-84.98496751 98.56313276 -82.79818138 88.2325083 -81 78 C-84.85499569 78.08142773 -88.70847275 78.19422354 -92.5625 78.3125 C-93.64853516 78.33505859 -94.73457031 78.35761719 -95.85351562 78.38085938 C-103.67741694 78.64244878 -108.91550357 79.09593372 -114.8046875 84.640625 C-117.58907143 88.33340565 -118.32642727 92.27141623 -119.125 96.75 C-119.44250025 98.34691588 -119.7627985 99.94327808 -120.0859375 101.5390625 C-120.31361816 102.68616699 -120.31361816 102.68616699 -120.54589844 103.85644531 C-121.4205676 107.98525998 -122.67252339 111.9974569 -124 116 C-124.66 116 -125.32 116 -126 116 C-126.13277344 116.69867188 -126.26554687 117.39734375 -126.40234375 118.1171875 C-126.66724609 119.48230469 -126.66724609 119.48230469 -126.9375 120.875 C-127.19853516 122.23238281 -127.19853516 122.23238281 -127.46484375 123.6171875 C-128 126 -128 126 -129 128 C-131.0839403 127.88556397 -133.16716493 127.75804453 -135.25 127.625 C-136.41015625 127.55539063 -137.5703125 127.48578125 -138.765625 127.4140625 C-141.76726687 127.02979434 -143.39983939 126.40883227 -146 125 C-145.59890015 123.63234497 -145.59890015 123.63234497 -145.18969727 122.23706055 C-144.18612885 118.80508672 -143.19605997 115.36933305 -142.2097168 111.93237305 C-141.78361729 110.45444586 -141.35401887 108.97752223 -140.9206543 107.50170898 C-138.64321828 99.73736354 -136.73888547 92.34419345 -136.25024414 84.22387695 C-135.41083643 76.76420392 -128.78692517 70.05084853 -123.18359375 65.49609375 C-119.34332086 62.86492288 -115.22839388 60.92003599 -111 59 C-110.43152344 58.65251709 -109.86304688 58.30503418 -109.27734375 57.94702148 C-106.18806738 56.66236207 -103.60556653 56.77538977 -100.265625 56.8046875 C-98.97011719 56.81113281 -97.67460937 56.81757812 -96.33984375 56.82421875 C-94.97655981 56.84092807 -93.61327856 56.85785794 -92.25 56.875 C-90.87110015 56.8850366 -89.49219335 56.89416127 -88.11328125 56.90234375 C-84.74201118 56.92591907 -81.37109364 56.9588273 -78 57 C-78.00580078 56.33178223 -78.01160156 55.66356445 -78.01757812 54.97509766 C-78.02208984 54.08870605 -78.02660156 53.20231445 -78.03125 52.2890625 C-78.03705078 51.41459473 -78.04285156 50.54012695 -78.04882812 49.63916016 C-77.79194835 35.75480834 -70.39940647 22.23843449 -60.83984375 12.47265625 C-53.21438781 5.83316023 -44.84978266 0.55572012 -35 -2 C-34.09507812 -2.34417969 -33.19015625 -2.68835938 -32.2578125 -3.04296875 C-21.86169078 -6.09698532 -9.65871201 -4.63731976 0 0 Z " fill="#F8DAE8" transform="translate(377,70)"/>
<path d="M0 0 C1.72945653 0.14235457 3.45855654 0.28904382 5.1875 0.4375 C6.63189453 0.55931641 6.63189453 0.55931641 8.10546875 0.68359375 C10.78649602 0.97666151 13.3662986 1.42703754 16 2 C16 2.66 16 3.32 16 4 C16.63091553 4.05534912 17.26183105 4.11069824 17.91186523 4.16772461 C20.7541768 4.4196812 23.59582219 4.67849769 26.4375 4.9375 C27.43072266 5.02451172 28.42394531 5.11152344 29.44726562 5.20117188 C30.39150391 5.28818359 31.33574219 5.37519531 32.30859375 5.46484375 C33.62041626 5.58267212 33.62041626 5.58267212 34.95874023 5.70288086 C37 6 37 6 38 7 C38.33082063 9.89618423 38.61545433 12.78480335 38.875 15.6875 C39.56128623 22.80838459 40.67027359 29.63775674 42.2734375 36.6171875 C44.30001528 46.05275934 45.10992812 55.59165321 45.60375977 65.20800781 C45.89153311 70.34618502 46.60733933 75.30600623 47.59765625 80.3515625 C48.35407918 85.3307348 48.65831582 87.91704535 45.953125 92.3671875 C45.06415907 93.54566531 44.1625505 94.71468885 43.25 95.875 C42.32423628 97.11037666 41.40230789 98.34863741 40.484375 99.58984375 C39.82985352 100.47325439 39.82985352 100.47325439 39.16210938 101.37451172 C33.5497802 109.22469819 31.84678724 117.48039991 31.34375 126.9375 C32.31287532 131.4600848 34.17579684 134.34731511 38 137 C41.80459416 137.96459619 45.46520594 137.98038161 49.375 137.9375 C50.39722656 137.95361328 51.41945313 137.96972656 52.47265625 137.98632812 C54.98314339 138.02152187 57.48951293 138.0251622 60 138 C59.67 138.99 59.34 139.98 59 141 C59 140.34 59 139.68 59 139 C58.40246414 139.01554428 57.80492828 139.03108856 57.18928528 139.04710388 C50.91042708 139.20324399 44.63212925 139.30806538 38.35180664 139.38452148 C36.01531536 139.41949552 33.6789747 139.46709242 31.34301758 139.52807617 C4.88930398 140.20086778 4.88930398 140.20086778 -5.68969727 130.44116211 C-6.94921875 129.015625 -6.94921875 129.015625 -8.6875 126.25 C-9.28949219 125.32703125 -9.89148438 124.4040625 -10.51171875 123.453125 C-11.00285156 122.64359375 -11.49398437 121.8340625 -12 121 C-12.66 120.01 -13.32 119.02 -14 118 C-14.22705078 115.9152832 -14.22705078 115.9152832 -14.1953125 113.55078125 C-14.18886719 112.70322266 -14.18242187 111.85566406 -14.17578125 110.98242188 C-14.15902344 110.10134766 -14.14226562 109.22027344 -14.125 108.3125 C-14.11597656 107.41982422 -14.10695312 106.52714844 -14.09765625 105.60742188 C-14.07409748 103.40467686 -14.04120329 101.20247412 -14 99 C-13.34 99 -12.68 99 -12 99 C-11.85195923 98.15755737 -11.85195923 98.15755737 -11.70092773 97.2980957 C-10.29674494 89.78123314 -8.22090349 82.51815114 -6.0625 75.1875 C-3.9989348 68.16984692 -1.99695857 61.18014146 -0.40234375 54.0390625 C0.5940957 49.59000926 1.80130264 45.42879887 3.5 41.1875 C5.9410934 34.66817272 7.18100349 28.34654208 8.2265625 21.49609375 C8.99552799 18.02021441 10.12922334 15.97556603 12 13 C12.7689752 10.34944829 12.7689752 10.34944829 13.1875 7.6875 C13.42533203 6.36298828 13.42533203 6.36298828 13.66796875 5.01171875 C13.83232422 4.01591797 13.83232422 4.01591797 14 3 C12.73542969 2.92652344 12.73542969 2.92652344 11.4453125 2.8515625 C9.80175781 2.73941406 9.80175781 2.73941406 8.125 2.625 C7.03445312 2.55539063 5.94390625 2.48578125 4.8203125 2.4140625 C2 2 2 2 0 0 Z " fill="#400422" transform="translate(205,228)"/>
<path d="M0 0 C5.94 0 11.88 0 18 0 C18 2.97 18 5.94 18 9 C230.355 8.505 230.355 8.505 447 8 C447 5.36 447 2.72 447 0 C452.94 0 458.88 0 465 0 C465 5.94 465 11.88 465 18 C462.69 18 460.38 18 458 18 C458 38.79 458 59.58 458 81 C460.31 81 462.62 81 465 81 C465 86.61 465 92.22 465 98 C459.39 98 453.78 98 448 98 C448 95.69 448 93.38 448 91 C306.1 91 164.2 91 18 91 C18 93.64 18 96.28 18 99 C12.06 99 6.12 99 0 99 C0 93.06 0 87.12 0 81 C2.64 81 5.28 81 8 81 C8 60.21 8 39.42 8 18 C5.36 18 2.72 18 0 18 C0 12.06 0 6.12 0 0 Z M18 10 C18 12.64 18 15.28 18 18 C15.36 18 12.72 18 10 18 C10 30.87 10 43.74 10 57 C14.95 57 19.9 57 25 57 C25 59.31 25 61.62 25 64 C28.3 64 31.6 64 35 64 C35.91692961 61.24921116 36.10886083 59.64051087 36.0625 56.8125 C36.041875 55.554375 36.02125 54.29625 36 53 C32.89660564 51.6856685 29.79215432 50.37385219 26.6875 49.0625 C25.36588867 48.50272461 25.36588867 48.50272461 24.01757812 47.93164062 C23.17001953 47.57392578 22.32246094 47.21621094 21.44921875 46.84765625 C20.27879028 46.3527771 20.27879028 46.3527771 19.0847168 45.84790039 C17.41423588 45.16847889 15.71082088 44.57027363 14 44 C14.08745575 41.60250616 14.19437075 39.20851779 14.3125 36.8125 C14.34633789 35.80219727 14.34633789 35.80219727 14.38085938 34.77148438 C14.63694482 29.99898281 15.55670048 26.44329952 19 23 C21.49756804 22.8990997 23.96687642 22.86028234 26.46484375 22.8671875 C27.21335098 22.86623077 27.96185822 22.86527405 28.73304749 22.86428833 C30.31934696 22.86360654 31.90564921 22.86546078 33.49194336 22.86962891 C35.92372909 22.87496976 38.35532949 22.8696878 40.78710938 22.86328125 C42.32552124 22.86394218 43.86393299 22.86522365 45.40234375 22.8671875 C46.13259262 22.86516327 46.86284149 22.86313904 47.61521912 22.86105347 C52.77008664 22.88504332 52.77008664 22.88504332 55 24 C55 27.96 55 31.92 55 36 C50.05 36.33 45.1 36.66 40 37 C40 34.69 40 32.38 40 30 C38.35425434 29.97311849 36.70838587 29.95365877 35.0625 29.9375 C33.68771484 29.92009766 33.68771484 29.92009766 32.28515625 29.90234375 C30.03406673 29.74050951 30.03406673 29.74050951 29 31 C28.95907063 33.33297433 28.95758277 35.66705225 29 38 C34.14477114 40.66765911 39.24299059 42.92743613 44.703125 44.875 C47.57442311 46.28135009 49.11864648 47.38676982 51 50 C51.26632413 52.8457781 51.29495712 55.13524225 51.0625 57.9375 C51.03865234 58.64068359 51.01480469 59.34386719 50.99023438 60.06835938 C50.74287275 63.68390537 50.15265555 65.79862304 47.95605469 68.69628906 C44.2546787 71.58084339 41.36644574 71.7310116 36.85546875 71.70703125 C36.08568192 71.72215256 35.31589508 71.73727386 34.52278137 71.75285339 C32.07738782 71.79565263 29.6332304 71.8045601 27.1875 71.8125 C25.52405586 71.83565061 23.86064098 71.86101713 22.19726562 71.88867188 C18.13140154 71.95144647 14.06630575 71.98384249 10 72 C10 74.97 10 77.94 10 81 C12.64 81 15.28 81 18 81 C18 83.97 18 86.94 18 90 C160.23 90 302.46 90 449 90 C449 92.31 449 94.62 449 97 C453.95 97 458.9 97 464 97 C464 92.05 464 87.1 464 82 C461.03 81.67 458.06 81.34 455 81 C455 64.5 455 48 455 31 C452.03 31 449.06 31 446 31 C445.2041523 34.74912484 444.41412192 38.49945424 443.625 42.25 C443.40328125 43.29414063 443.1815625 44.33828125 442.953125 45.4140625 C440.05384021 58.59853246 440.05384021 58.59853246 439 72 C434.05 72 429.1 72 424 72 C424.32484375 69.93878906 424.32484375 69.93878906 424.65625 67.8359375 C424.93773598 66.01566148 425.21897287 64.19534692 425.5 62.375 C425.64308594 61.47136719 425.78617188 60.56773437 425.93359375 59.63671875 C426.63734167 55.04560134 427.18584778 50.66168185 427 46 C427.66 46 428.32 46 429 46 C430.14077657 42.57767028 430.09815117 39.91326783 430.0625 36.3125 C430.04896484 34.54326172 430.04896484 34.54326172 430.03515625 32.73828125 C430.02355469 31.83464844 430.01195312 30.93101562 430 30 C426.7 30 423.4 30 420 30 C420.33 27.36 420.66 24.72 421 22 C432.55 22 444.1 22 456 22 C456 20.68 456 19.36 456 18 C453.36 18 450.72 18 448 18 C448 15.36 448 12.72 448 10 C306.1 10 164.2 10 18 10 Z " fill="#B2ACAF" transform="translate(116,409)"/>
<path d="M0 0 C4.95 0 9.9 0 15 0 C15.33 6.93 15.66 13.86 16 21 C17.93308351 14.46404954 17.93308351 14.46404954 19.85913086 7.92602539 C20.22083374 6.71160767 20.22083374 6.71160767 20.58984375 5.47265625 C20.83597412 4.64000244 21.08210449 3.80734863 21.33569336 2.94946289 C22 1 22 1 23 0 C24.41570123 -0.08651611 25.835595 -0.10704904 27.25390625 -0.09765625 C28.0229126 -0.09515869 28.79191895 -0.09266113 29.58422852 -0.09008789 C30.56705811 -0.08098389 31.5498877 -0.07187988 32.5625 -0.0625 C35.676875 -0.041875 38.79125 -0.02125 42 0 C42 9.57 42 19.14 42 29 C45.3 19.43 48.6 9.86 52 0 C55.63 0 59.26 0 63 0 C63.30792485 5.23472253 62.69310694 7.61681452 60 12 C59.22679116 14.00588995 58.51129279 16.03463949 57.84375 18.078125 C57.26947266 19.82029297 57.26947266 19.82029297 56.68359375 21.59765625 C56.29300781 22.80292969 55.90242188 24.00820313 55.5 25.25 C55.10941406 26.43980469 54.71882813 27.62960937 54.31640625 28.85546875 C53.20708222 32.2357322 52.10322566 35.61774238 51 39 C48.16363636 47.67272727 48.16363636 47.67272727 47 50 C40.07 50 33.14 50 26 50 C25.67 44.06 25.34 38.12 25 32 C23.02 37.94 21.04 43.88 19 50 C12.73 50 6.46 50 0 50 C0 33.5 0 17 0 0 Z " fill="#F9F8F8" transform="translate(185,431)"/>
<path d="M0 0 C6.93 0.495 6.93 0.495 14 1 C14.86509605 4.4603842 15.16407258 7.04370155 15.1875 10.5625 C15.20167969 11.51253906 15.21585938 12.46257812 15.23046875 13.44140625 C14.67759746 21.97811381 12.53500698 30.24022449 10.21484375 38.4453125 C9.82311729 39.85005325 9.82311729 39.85005325 9.42347717 41.28317261 C8.87707278 43.23827886 8.32825884 45.19271322 7.77709961 47.14648438 C6.93028665 50.15058968 6.09255726 53.15712606 5.25585938 56.1640625 C4.7218835 58.07046084 4.1873972 59.97671631 3.65234375 61.8828125 C3.27576881 63.23416794 3.27576881 63.23416794 2.8915863 64.61282349 C2.65786819 65.43813568 2.42415009 66.26344788 2.18334961 67.11376953 C1.87596107 68.20650681 1.87596107 68.20650681 1.56236267 69.32131958 C1 71 1 71 0 72 C-2.68753523 82.98006541 -2.68753523 82.98006541 -0.8125 93.8125 C0.86973199 96.16507896 0.86973199 96.16507896 3.56640625 97.17578125 C6 99 6 99 6.671875 102.3984375 C6.69765625 103.71070313 6.7234375 105.02296875 6.75 106.375 C6.86980666 110.71371245 6.98745106 114.77015845 8 119 C-0.99512119 118.97180213 -8.06967231 118.07923481 -15 112 C-17.64542869 108.83335302 -19.86436381 105.52501314 -22 102 C-22.66 101.01 -23.32 100.02 -24 99 C-24.22705078 96.9152832 -24.22705078 96.9152832 -24.1953125 94.55078125 C-24.18886719 93.70322266 -24.18242187 92.85566406 -24.17578125 91.98242188 C-24.15902344 91.10134766 -24.14226562 90.22027344 -24.125 89.3125 C-24.11597656 88.41982422 -24.10695312 87.52714844 -24.09765625 86.60742188 C-24.07409748 84.40467686 -24.04120329 82.20247412 -24 80 C-23.34 80 -22.68 80 -22 80 C-21.85195923 79.15755737 -21.85195923 79.15755737 -21.70092773 78.2980957 C-20.29674494 70.78123314 -18.22090349 63.51815114 -16.0625 56.1875 C-13.99932748 49.17118233 -11.99690379 42.18173043 -10.3984375 35.04296875 C-9.39458493 30.56452933 -8.22118052 26.39950128 -6.5625 22.125 C-3.85474843 14.83868668 -1.91767159 7.52863663 0 0 Z " fill="#F645AD" transform="translate(215,247)"/>
<path d="M0 0 C5.34505543 3.63560076 9.06376939 8.03115193 11.140625 14.26171875 C12.56932739 22.03482836 11.88992204 30.03937401 10.6015625 37.76953125 C-9.8584375 37.76953125 -30.3184375 37.76953125 -51.3984375 37.76953125 C-51.3984375 24.46122438 -49.69193176 15.41033476 -40.51171875 5.79296875 C-28.85130673 -4.97401288 -14.25888431 -8.03237942 0 0 Z " fill="#420925" transform="translate(370.3984375,90.23046875)"/>
<path d="M0 0 C0.83637497 0.00565979 1.67274994 0.01131958 2.5344696 0.01715088 C5.19414586 0.03946232 7.8524528 0.08964712 10.51171875 0.140625 C12.31964194 0.16069685 14.12758634 0.17894642 15.93554688 0.1953125 C20.35729486 0.23930973 24.778025 0.30829954 29.19921875 0.390625 C28.1519106 8.92677356 28.1519106 8.92677356 27.515625 12.7578125 C27.39372803 13.49290039 27.27183105 14.22798828 27.14624023 14.98535156 C26.9559021 16.11408691 26.9559021 16.11408691 26.76171875 17.265625 C26.62902588 18.05936523 26.49633301 18.85310547 26.35961914 19.67089844 C25.68320155 23.67607817 24.96896553 27.66433481 24.13671875 31.640625 C22.84220351 37.84124422 22.0602007 44.11775648 21.19921875 50.390625 C15.91921875 50.390625 10.63921875 50.390625 5.19921875 50.390625 C5.69670522 45.62896878 6.25869831 41.0932272 7.19921875 36.390625 C3.56921875 36.390625 -0.06078125 36.390625 -3.80078125 36.390625 C-3.94515625 37.958125 -4.08953125 39.525625 -4.23828125 41.140625 C-4.53739756 44.38817347 -5.00340267 47.2011107 -5.80078125 50.390625 C-10.42078125 50.390625 -15.04078125 50.390625 -19.80078125 50.390625 C-20.033848 43.81037371 -19.14425439 37.7850141 -17.92578125 31.328125 C-16.37291212 23.04532286 -16.37291212 23.04532286 -15.265625 14.6953125 C-15.15806885 13.66869507 -15.15806885 13.66869507 -15.04833984 12.62133789 C-14.87589442 10.83386601 -14.72986678 9.04389997 -14.5859375 7.25390625 C-12.55523787 -0.15158045 -6.48866991 -0.16632726 0 0 Z " fill="#F6F3F4" transform="translate(444.80078125,430.609375)"/>
<path d="M0 0 C5.21442276 -0.0494186 10.42870934 -0.08572831 15.64331055 -0.10986328 C17.41742324 -0.11992411 19.19151935 -0.13357422 20.96557617 -0.15087891 C23.51485284 -0.17512378 26.06391037 -0.18648218 28.61328125 -0.1953125 C29.40712723 -0.20563507 30.20097321 -0.21595764 31.01887512 -0.22659302 C34.88223043 -0.2273811 36.70839446 -0.19440369 40 2 C40.6909528 10.56781475 40.25124632 20.02775699 35 27 C35.27032456 28.7909002 35.54859255 30.58103776 35.87109375 32.36328125 C36.1585826 38.24373498 34.26795559 44.31955894 33 50 C28.05 50 23.1 50 18 50 C17.76561333 43.67155983 18.62529478 38.18617348 20 32 C16.37 32 12.74 32 9 32 C8.85691406 32.85851562 8.71382813 33.71703125 8.56640625 34.6015625 C7.28320312 42.30078125 7.28320312 42.30078125 6 50 C1.38 50 -3.24 50 -8 50 C-6.58203403 32.93436248 -4.25541877 16.60183475 0 0 Z " fill="#F5F2F3" transform="translate(485,431)"/>
<path d="M0 0 C0.72397476 0.00404846 1.44794952 0.00809692 2.19386292 0.01226807 C2.93858353 0.01035461 3.68330414 0.00844116 4.45059204 0.00646973 C6.02672157 0.00510793 7.60286232 0.00880404 9.17897034 0.01715088 C11.5910925 0.02783581 14.00246735 0.01726361 16.41456604 0.00445557 C17.94516664 0.00577746 19.47576678 0.00834047 21.00636292 0.01226807 C21.72831345 0.0082196 22.45026398 0.00417114 23.1940918 0 C26.90169586 0.0346782 28.49868264 0.16600205 31.66651917 2.27789307 C31.99464417 5.06304932 31.99464417 5.06304932 31.91651917 8.34039307 C31.90105042 9.42449463 31.88558167 10.50859619 31.86964417 11.62554932 C31.66651917 14.27789307 31.66651917 14.27789307 30.66651917 15.27789307 C28.13602514 15.35102873 25.6334708 15.37036834 23.10401917 15.34039307 C22.3931012 15.33588135 21.68218323 15.33136963 20.94972229 15.32672119 C19.18861903 15.31490171 17.42755881 15.2969657 15.66651917 15.27789307 C15.66651917 12.96789307 15.66651917 10.65789307 15.66651917 8.27789307 C12.36651917 8.60789307 9.06651917 8.93789307 5.66651917 9.27789307 C5.66651917 11.58789307 5.66651917 13.89789307 5.66651917 16.27789307 C7.31200745 16.85797119 7.31200745 16.85797119 8.99073792 17.44976807 C10.44534764 17.97530448 11.89976467 18.50137447 13.35401917 19.02789307 C14.07524963 19.28054932 14.7964801 19.53320557 15.53956604 19.79351807 C20.37619911 21.56032467 25.23489868 23.41465211 27.66651917 28.27789307 C27.68110192 30.9057057 27.61666418 33.47047184 27.47901917 36.09039307 C27.46032776 36.8026001 27.44163635 37.51480713 27.42237854 38.24859619 C27.16328007 43.16237596 26.16523248 45.81871323 22.66651917 49.27789307 C19.66499062 50.77865734 16.57831907 50.42010899 13.28761292 50.41070557 C12.19671104 50.41214066 12.19671104 50.41214066 11.08377075 50.41360474 C9.54632989 50.41428542 8.00888615 50.41243892 6.47145081 50.40826416 C4.10997616 50.40290658 1.74869106 50.40821684 -0.61277771 50.41461182 C-2.10431459 50.41395117 -3.59585135 50.41267028 -5.08738708 50.41070557 C-6.15298607 50.41374191 -6.15298607 50.41374191 -7.2401123 50.4168396 C-12.21852369 50.39285021 -12.21852369 50.39285021 -13.33348083 49.27789307 C-13.4774154 44.94258389 -13.37560144 40.61631575 -13.33348083 36.27789307 C-9.04348083 36.27789307 -4.75348083 36.27789307 -0.33348083 36.27789307 C-0.33348083 38.25789307 -0.33348083 40.23789307 -0.33348083 42.27789307 C3.29651917 42.27789307 6.92651917 42.27789307 10.66651917 42.27789307 C10.99651917 38.64789307 11.32651917 35.01789307 11.66651917 31.27789307 C10.01651917 30.94789307 8.36651917 30.61789307 6.66651917 30.27789307 C4.25932475 29.34176191 1.90349101 28.37717439 -0.45848083 27.34039307 C-1.0785199 27.07549072 -1.69855896 26.81058838 -2.33738708 26.53765869 C-5.20351001 25.29567209 -7.72551048 24.01653997 -10.33348083 22.27789307 C-10.63976604 19.74053036 -10.75195076 17.49872381 -10.70848083 14.96539307 C-10.71621521 13.64926025 -10.72394958 12.33312744 -10.73191833 10.97711182 C-9.97448707 3.94488236 -7.14969222 0.06718718 0 0 Z " fill="#F5F2F4" transform="translate(140.33348083496094,430.72210693359375)"/>
<path d="M0 0 C0.74189072 0.00091644 1.48378143 0.00183289 2.24815369 0.0027771 C3.81239238 0.00880539 5.37661994 0.02452848 6.94067383 0.04931641 C9.33523039 0.08586708 11.72824022 0.09033535 14.12304688 0.08984375 C15.64454462 0.09967401 17.1660319 0.11133062 18.6875 0.125 C19.40317642 0.12722565 20.11885284 0.12945129 20.85621643 0.13174438 C24.53424451 0.20204514 26.13521041 0.36618194 29.27734375 2.4609375 C29.82729142 9.3902781 28.65229561 15.67211271 27.27734375 22.4609375 C22.32734375 22.4609375 17.37734375 22.4609375 12.27734375 22.4609375 C13.15234375 12.9609375 13.15234375 12.9609375 14.27734375 8.4609375 C10.31734375 8.4609375 6.35734375 8.4609375 2.27734375 8.4609375 C2.19484375 10.1728125 2.11234375 11.8846875 2.02734375 13.6484375 C1.30270977 23.40395763 -0.80592485 32.87728048 -2.72265625 42.4609375 C5.85734375 42.4609375 14.43734375 42.4609375 23.27734375 42.4609375 C22.94734375 45.1009375 22.61734375 47.7409375 22.27734375 50.4609375 C16.9021947 50.51029259 11.5271769 50.54663552 6.15185547 50.57080078 C4.32240502 50.58087234 2.49297072 50.59453026 0.66357422 50.61181641 C-1.96260559 50.63601427 -4.588573 50.64740882 -7.21484375 50.65625 C-8.44616531 50.67173386 -8.44616531 50.67173386 -9.70236206 50.68753052 C-11.71054767 50.68792934 -13.71821007 50.5834329 -15.72265625 50.4609375 C-18.09133579 48.09225796 -18.01258606 47.64652865 -18.01953125 44.421875 C-17.87154616 37.32624504 -16.6147671 30.37092994 -15.37890625 23.39990234 C-14.97032651 21.0726675 -14.58826046 18.74200825 -14.20703125 16.41015625 C-13.94821163 14.91899275 -13.68784995 13.42809591 -13.42578125 11.9375 C-13.31518372 11.24580719 -13.20458618 10.55411438 -13.09063721 9.84146118 C-12.53329695 6.8267741 -11.80307329 4.58170211 -10.09887695 2.02246094 C-6.79806991 -0.14665052 -3.81866321 -0.07689759 0 0 Z " fill="#F8F6F7" transform="translate(390.72265625,430.5390625)"/>
<path d="M0 0 C5.61 0.33 11.22 0.66 17 1 C17 5.95 17 10.9 17 16 C12.05 16 7.1 16 2 16 C2 13.69 2 11.38 2 9 C-140.23 9 -282.46 9 -429 9 C-429 8.34 -429 7.68 -429 7 C-287.43 7 -145.86 7 0 7 C0 4.69 0 2.38 0 0 Z " fill="#6A5560" transform="translate(563,490)"/>
<path d="M0 0 C0.72680969 0.00565979 1.45361938 0.01131958 2.20245361 0.01715088 C4.51585745 0.03947947 6.8276922 0.08966452 9.140625 0.140625 C10.71221716 0.16069477 12.28383368 0.17894471 13.85546875 0.1953125 C17.70112217 0.23933207 21.54560789 0.30833125 25.390625 0.390625 C25.060625 3.030625 24.730625 5.670625 24.390625 8.390625 C13.995625 8.885625 13.995625 8.885625 3.390625 9.390625 C2.730625 13.350625 2.070625 17.310625 1.390625 21.390625 C7.000625 21.390625 12.610625 21.390625 18.390625 21.390625 C18.060625 24.030625 17.730625 26.670625 17.390625 29.390625 C11.120625 29.390625 4.850625 29.390625 -1.609375 29.390625 C-1.75375 31.370625 -1.898125 33.350625 -2.046875 35.390625 C-2.4314567 40.41765729 -2.92390977 45.39652115 -3.609375 50.390625 C-8.559375 50.390625 -13.509375 50.390625 -18.609375 50.390625 C-18.75690664 44.55069267 -18.25684636 39.17834093 -17.21875 33.4375 C-17.07286438 32.61485657 -16.92697876 31.79221313 -16.77667236 30.94464111 C-16.46768388 29.21957492 -16.15486586 27.49519063 -15.83837891 25.77148438 C-15.35867559 23.13678362 -14.90362203 20.49854143 -14.44921875 17.859375 C-14.14472817 16.17681137 -13.83878878 14.49450915 -13.53125 12.8125 C-13.39877869 12.02703796 -13.26630737 11.24157593 -13.12982178 10.43231201 C-12.51387385 7.19643408 -11.78158359 4.65261931 -9.96484375 1.88867188 C-6.69004528 -0.19405651 -3.75325317 -0.11050712 0 0 Z " fill="#F8F5F6" transform="translate(295.609375,430.609375)"/>
<path d="M0 0 C11.88 0 23.76 0 36 0 C35.67 2.64 35.34 5.28 35 8 C31.37 8 27.74 8 24 8 C23.81824219 9.77503906 23.63648438 11.55007813 23.44921875 13.37890625 C22.15006455 25.74047609 20.7388268 37.87090987 18 50 C13.05 50 8.1 50 3 50 C3.58794464 40.41042016 4.8560118 31.13771616 6.5625 21.6875 C6.79940185 20.34971085 7.03573277 19.01182046 7.27148438 17.67382812 C7.84208563 14.44818428 8.41833678 11.22366408 9 8 C6.03 8 3.06 8 0 8 C0 5.36 0 2.72 0 0 Z " fill="#F6F3F5" transform="translate(332,431)"/>
<path d="M0 0 C10.89 0 21.78 0 33 0 C33 2.31 33 4.62 33 7 C29.7 7 26.4 7 23 7 C22.90203125 8.18851562 22.8040625 9.37703125 22.703125 10.6015625 C21.5586429 23.56883541 19.50074682 36.22919584 17 49 C12.05 49 7.1 49 2 49 C1.51493168 40.10708083 3.32374305 31.69059407 5 23 C5.66 23 6.32 23 7 23 C7.33 17.72 7.66 12.44 8 7 C5.03 7 2.06 7 -1 7 C-0.67 4.69 -0.34 2.38 0 0 Z " fill="#F6F4F5" transform="translate(538,432)"/>
<path d="M0 0 C5.94 0 11.88 0 18 0 C18 5.94 18 11.88 18 18 C15.36 18 12.72 18 10 18 C10 30.87 10 43.74 10 57 C14.95 57 19.9 57 25 57 C25 59.31 25 61.62 25 64 C24.67 64 24.34 64 24 64 C24 62.02 24 60.04 24 58 C19.71 58 15.42 58 11 58 C11.33 62.62 11.66 67.24 12 72 C11.34 72 10.68 72 10 72 C10 74.97 10 77.94 10 81 C12.64 81 15.28 81 18 81 C18 86.94 18 92.88 18 99 C12.06 99 6.12 99 0 99 C0 93.06 0 87.12 0 81 C2.64 81 5.28 81 8 81 C8 60.21 8 39.42 8 18 C5.36 18 2.72 18 0 18 C0 12.06 0 6.12 0 0 Z " fill="#A99DA3" transform="translate(116,409)"/>
<path d="M0 0 C4.62 0 9.24 0 14 0 C12.43671464 16.93559142 9.44687113 33.35766418 6 50 C1.05 50 -3.9 50 -9 50 C-8.3722813 42.86859786 -7.37494427 35.91048191 -6.0625 28.875 C-5.89298828 27.93785156 -5.72347656 27.00070312 -5.54882812 26.03515625 C-4.55429994 20.62764559 -3.36799053 15.32437807 -2 10 C-1.60988348 8.16982372 -1.23217299 6.33688965 -0.875 4.5 C-0.58625 3.015 -0.2975 1.53 0 0 Z " fill="#F6F3F5" transform="translate(259,431)"/>
<path d="M0 0 C0.33 0 0.66 0 1 0 C1.21304418 5.22845934 0.50804413 9.70379529 -0.96875 14.68359375 C-1.1685144 15.38396255 -1.36827881 16.08433136 -1.57409668 16.80592346 C-2.20746023 19.01903189 -2.85348228 21.22820286 -3.5 23.4375 C-3.93443926 24.94702254 -4.3680413 26.45678631 -4.80078125 27.96679688 C-5.85600072 31.64793606 -6.92829816 35.32346729 -8 39 C-2.72 39.99 2.56 40.98 8 42 C8.99 38.04 9.98 34.08 11 30 C11.33 30 11.66 30 12 30 C12.15569823 39.18619583 12.15569823 39.18619583 11 43 C10.01 43.495 10.01 43.495 9 44 C8.37022263 46.31110962 7.84386194 48.6509543 7.375 51 C7.11460937 52.27875 6.85421875 53.5575 6.5859375 54.875 C5.96928524 57.63390251 5.96928524 57.63390251 6 59 C-2.62974388 58.36856891 -11.10206744 57.11764564 -19.63671875 55.71484375 C-21.01099849 55.49173791 -22.38533327 55.26897081 -23.75971985 55.04652405 C-27.33908487 54.46628168 -30.91769448 53.88150775 -34.49615479 53.29571533 C-38.16299817 52.69630292 -41.83055327 52.10127807 -45.49804688 51.50585938 C-52.66605945 50.34147922 -59.83327798 49.17230025 -67 48 C-67 47.67 -67 47.34 -67 47 C-60.62310152 46.81705619 -54.66350392 47.51020757 -48.375 48.53125 C-47.38749756 48.68662231 -46.39999512 48.84199463 -45.38256836 49.0020752 C-42.25410477 49.49564528 -39.12707006 49.99768457 -36 50.5 C-33.86857858 50.83780163 -31.73706893 51.17504698 -29.60546875 51.51171875 C-24.40260767 52.33471302 -19.20089073 53.16464961 -14 54 C-13.67846308 52.41951944 -13.35844827 50.83872917 -13.0390625 49.2578125 C-12.77150146 47.93740967 -12.77150146 47.93740967 -12.49853516 46.59033203 C-11.88502282 43.40259162 -11.41979629 40.21843824 -11 37 C-10.34 37 -9.68 37 -9 37 C-8.81824219 36.03900391 -8.81824219 36.03900391 -8.6328125 35.05859375 C-7.88004904 31.17317618 -7.10625773 27.36526093 -6 23.5625 C-5.15669658 20.55823157 -4.57762941 17.69449013 -4.0625 14.625 C-3.18490651 9.54899927 -1.78694067 4.8247398 0 0 Z " fill="#A5145A" transform="translate(240,156)"/>
<path d="M0 0 C3.63467079 1.62400184 4.77408696 2.66113044 7 6 C7.81432508 10.90309414 7.67418528 15.70919781 5.25 20.125 C3.24223383 22.62446401 2.22069537 22.96871808 -1.00390625 23.42578125 C-4.03543731 23.43651867 -6.98475366 23.30296734 -10 23 C-10 22.34 -10 21.68 -10 21 C-10.61875 20.731875 -11.2375 20.46375 -11.875 20.1875 C-14 19 -14 19 -16 16 C-16.4775733 11.14467144 -16.51341394 8.95601216 -14.1875 4.625 C-9.92406458 -0.49112251 -6.27318521 -0.72764538 0 0 Z " fill="#E5E5E5" transform="translate(353,357)"/>
<path d="M0 0 C0.33 0.99 0.66 1.98 1 3 C1.97736555 2.99815641 2.9547311 2.99631283 3.96171379 2.99441338 C27.71284911 2.95006873 51.46397908 2.9171744 75.21514702 2.89637566 C86.70090071 2.88605092 98.18662711 2.87196778 109.67236328 2.84912109 C119.68009621 2.8292238 129.68780937 2.81629228 139.69556153 2.81182301 C144.99750408 2.80920941 150.29939007 2.80304159 155.60131454 2.78853989 C160.58673433 2.77501373 165.57207399 2.77076724 170.55751038 2.77378464 C172.39176493 2.77323224 174.22602203 2.76922533 176.06026077 2.76158905 C178.55572592 2.75170539 181.05088463 2.75400682 183.5463562 2.75949097 C184.64653794 2.75075244 184.64653794 2.75075244 185.76894557 2.74183738 C190.77175758 2.77175758 190.77175758 2.77175758 193 5 C193.125 8.125 193.125 8.125 193 11 C192.67 11 192.34 11 192 11 C191.67 9.35 191.34 7.7 191 6 C127.64 5.67 64.28 5.34 -1 5 C-0.67 3.35 -0.34 1.7 0 0 Z " fill="#BA397C" transform="translate(257,343)"/>
<path d="M0 0 C1.72945653 0.14235457 3.45855654 0.28904382 5.1875 0.4375 C6.63189453 0.55931641 6.63189453 0.55931641 8.10546875 0.68359375 C10.78649602 0.97666151 13.3662986 1.42703754 16 2 C16 2.66 16 3.32 16 4 C26.395 4.99 26.395 4.99 37 6 C35.68 6.33 34.36 6.66 33 7 C32.78718384 8.07217773 32.78718384 8.07217773 32.57006836 9.16601562 C31.60724447 13.95250803 30.58467286 18.72588654 29.5625 23.5 C29.34529297 24.53253906 29.12808594 25.56507813 28.90429688 26.62890625 C28.68966797 27.62792969 28.47503906 28.62695312 28.25390625 29.65625 C28.06127197 30.56181641 27.8686377 31.46738281 27.67016602 32.40039062 C26.9872662 35.04939507 26.070068 37.4851276 25 40 C23.85017398 35.90996141 23.88905744 31.96822949 23.9375 27.75 C23.94201172 27.00492188 23.94652344 26.25984375 23.95117188 25.4921875 C23.96290754 23.6614236 23.9808415 21.83070127 24 20 C22.12828125 20.01546875 22.12828125 20.01546875 20.21875 20.03125 C16.71280964 20.06022471 13.44693996 19.68938799 10 19 C9.67 19.99 9.34 20.98 9 22 C9.65783539 17.92142061 10.91407748 14.16401997 12.28125 10.28125 C13.03990845 7.87333406 13.5456039 5.48170179 14 3 C13.15695313 2.95101562 12.31390625 2.90203125 11.4453125 2.8515625 C9.80175781 2.73941406 9.80175781 2.73941406 8.125 2.625 C7.03445312 2.55539063 5.94390625 2.48578125 4.8203125 2.4140625 C2 2 2 2 0 0 Z " fill="#AA105B" transform="translate(205,228)"/>
<path d="M0 0 C4.95 0.33 9.9 0.66 15 1 C15.06510417 3.63671875 15.13020833 6.2734375 15.1953125 8.91015625 C16.35715525 13.3714068 18.18818054 16.33449191 22 19 C25.8042759 19.96543228 29.46536575 19.98037986 33.375 19.9375 C34.39722656 19.95361328 35.41945313 19.96972656 36.47265625 19.98632812 C38.98314339 20.02152187 41.48951293 20.0251622 44 20 C43.505 21.485 43.505 21.485 43 23 C43 22.34 43 21.68 43 21 C42.06705612 21.00666183 42.06705612 21.00666183 41.11526489 21.01345825 C34.65938609 21.0576024 28.20354995 21.08782918 21.74755859 21.10986328 C19.33608256 21.11993954 16.92461878 21.13360081 14.51318359 21.15087891 C11.05302915 21.1750559 7.5930358 21.18646669 4.1328125 21.1953125 C3.04944611 21.20563507 1.96607971 21.21595764 0.84988403 21.22659302 C-0.1510025 21.22674408 -1.15188904 21.22689514 -2.18310547 21.22705078 C-3.50881058 21.23371262 -3.50881058 21.23371262 -4.86129761 21.24050903 C-7 21 -7 21 -9 19 C-5.37 19.33 -1.74 19.66 2 20 C1.34 18.35 0.68 16.7 0 15 C-0.13756975 12.34490385 -0.19029073 9.8323525 -0.125 7.1875 C-0.08375 4.815625 -0.0425 2.44375 0 0 Z " fill="#A70C5A" transform="translate(221,346)"/>
<path d="M0 0 C2.64 0 5.28 0 8 0 C8 0.33 8 0.66 8 1 C5.69 1 3.38 1 1 1 C1.33 6.28 1.66 11.56 2 17 C2.66 16.67 3.32 16.34 4 16 C4 19.3 4 22.6 4 26 C4.96486328 26.38285156 4.96486328 26.38285156 5.94921875 26.7734375 C9.91336341 28.36721653 13.86269202 29.99607668 17.8125 31.625 C18.60076172 31.94984375 19.38902344 32.2746875 20.20117188 32.609375 C22.13420912 33.40602065 24.06711749 34.20297899 26 35 C26.125 42.625 26.125 42.625 25 46 C21.7 46 18.4 46 15 46 C15 43.69 15 41.38 15 39 C10.05 39 5.1 39 0 39 C0 26.13 0 13.26 0 0 Z " fill="#47112C" transform="translate(126,427)"/>
<path d="M0 0 C0.33 0 0.66 0 1 0 C1 11.55 1 23.1 1 35 C-0.98 33.68 -2.96 32.36 -5 31 C-8.64542337 30.31147974 -8.64542337 30.31147974 -12.375 30.25 C-15.654375 30.12625 -15.654375 30.12625 -19 30 C-19 25.38 -19 20.76 -19 16 C-12.73 16 -6.46 16 0 16 C0 10.72 0 5.44 0 0 Z " fill="#A50E57" transform="translate(454,192)"/>
<path d="M0 0 C4.17905855 1.57700323 6.70772617 3.13932829 9 7 C9.495 8.485 9.495 8.485 10 10 C24.85 10.495 24.85 10.495 40 11 C39.67 13.64 39.34 16.28 39 19 C38.635227 25.38776905 38.84933472 30.9512539 41 37 C37.26092896 34.50728597 37.02086922 33.31906209 36 29 C35.26884937 22.18012951 36.42895543 18.85611885 39 12 C29.43 12 19.86 12 10 12 C9.67 14.31 9.34 16.62 9 19 C7.984375 21.1796875 7.984375 21.1796875 6.75 22.875 C6.35296875 23.44992187 5.9559375 24.02484375 5.546875 24.6171875 C4 26 4 26 -1 27 C-1 38.55 -1 50.1 -1 62 C-1.66 62 -2.32 62 -3 62 C-3.01458252 60.95021973 -3.02916504 59.90043945 -3.04418945 58.81884766 C-3.10207993 54.93096526 -3.17931206 51.04366774 -3.26245117 47.15625 C-3.29574435 45.47242715 -3.32376256 43.78849152 -3.34643555 42.10449219 C-3.37990205 39.68635914 -3.43221036 37.26926376 -3.48828125 34.8515625 C-3.49467117 34.0963028 -3.5010611 33.34104309 -3.50764465 32.56289673 C-3.53980318 30.21354099 -3.53980318 30.21354099 -4 27 C-4.99 26.34 -5.98 25.68 -7 25 C-3.7 25 -0.4 25 3 25 C3.66 23.68 4.32 22.36 5 21 C5.66 20.01 6.32 19.02 7 18 C7.66807132 13.3468056 7.95453084 9.30452548 5.125 5.4375 C0.83088999 2.53266088 -2.89834435 2.25858292 -8 3 C-11.32672971 5.1234445 -12.64187858 6.76542353 -13.7421875 10.55859375 C-14.25505032 13.03508888 -14.67380591 15.4926872 -15 18 C-15.33 18 -15.66 18 -16 18 C-16 16.02 -16 14.04 -16 12 C-25.9 12 -35.8 12 -46 12 C-45.9213221 17.04062956 -45.9213221 17.04062956 -45.81982422 22.08081055 C-45.78761661 26.18935813 -46.15454788 29.31636131 -48 33 C-48.66 33 -49.32 33 -50 33 C-49.01 29.535 -49.01 29.535 -48 26 C-47.67 21.05 -47.34 16.1 -47 11 C-36.77 11 -26.54 11 -16 11 C-15.67 9.68 -15.34 8.36 -15 7 C-10.8672304 0.85124523 -7.35068692 -0.76655208 0 0 Z " fill="#A54F7D" transform="translate(352,355)"/>
<path d="M0 0 C2.4375 2 2.4375 2 4 5 C4.22234082 8.96044577 4.12178637 12.61228607 1.56640625 15.7734375 C0 17 0 17 -2 17 C-2 17.66 -2 18.32 -2 19 C-6.13998349 19.32470459 -8.33999001 19.4304413 -11.875 17.125 C-14.60044891 14.39955109 -14.94669869 13.56499391 -15.3125 9.6875 C-14.94599135 5.36269788 -14.1201518 3.95149494 -11 1 C-7.10050897 -1.25760007 -4.28482672 -1.36749789 0 0 Z " fill="#430525" transform="translate(289,368)"/>
<path d="M0 0 C2.91963173 1.98783437 4.61102978 3.4314697 5.48046875 6.9375 C5.77375693 11.12280161 5.32066642 12.61355585 2.5625 15.9375 C1.2940625 16.9584375 1.2940625 16.9584375 0 18 C-0.33 18.33 -0.66 18.66 -1 19 C-4.05411614 19.43364732 -6.94863588 19.45877153 -10 19 C-13.51393128 16.25741949 -13.92250459 14.44383733 -14.6875 10.0625 C-14.50114832 6.55509521 -13.46555417 4.90848404 -10.9375 2.5 C-7.24728973 -0.22106414 -4.60018322 -0.93707436 0 0 Z " fill="#4C0829" transform="translate(415,367)"/>
<path d="M0 0 C5.61 0.33 11.22 0.66 17 1 C17 5.95 17 10.9 17 16 C12.05 16 7.1 16 2 16 C2 13.69 2 11.38 2 9 C1.34 9 0.68 9 0 9 C0 6.03 0 3.06 0 0 Z " fill="#7A7A7A" transform="translate(563,490)"/>
<path d="M0 0 C1.51400391 0.01740234 1.51400391 0.01740234 3.05859375 0.03515625 C4.07050781 0.04417969 5.08242188 0.05320312 6.125 0.0625 C7.29869141 0.07990234 7.29869141 0.07990234 8.49609375 0.09765625 C8.27953125 1.70640625 8.27953125 1.70640625 8.05859375 3.34765625 C7.35755189 8.91593163 6.9410529 14.50388403 6.49609375 20.09765625 C2.53609375 20.09765625 -1.42390625 20.09765625 -5.50390625 20.09765625 C-5.19671856 16.95121924 -4.88342425 13.80560436 -4.56640625 10.66015625 C-4.47939453 9.76232422 -4.39238281 8.86449219 -4.30273438 7.93945312 C-4.21572266 7.08544922 -4.12871094 6.23144531 -4.0390625 5.3515625 C-3.96051025 4.56080322 -3.88195801 3.77004395 -3.80102539 2.95532227 C-3.3399095 0.07230597 -2.96506677 0.11564223 0 0 Z " fill="#4B142F" transform="translate(448.50390625,438.90234375)"/>
<path d="M0 0 C4.62 0 9.24 0 14 0 C14 4.62 14 9.24 14 14 C9.38 14 4.76 14 0 14 C0 9.38 0 4.76 0 0 Z " fill="#7A7A7A" transform="translate(118,492)"/>
<path d="M0 0 C4.62 0 9.24 0 14 0 C14 4.62 14 9.24 14 14 C9.38 14 4.76 14 0 14 C0 9.38 0 4.76 0 0 Z " fill="#7C7C7C" transform="translate(565,411)"/>
<path d="M0 0 C4.62 0 9.24 0 14 0 C14 4.62 14 9.24 14 14 C9.38 14 4.76 14 0 14 C0 9.38 0 4.76 0 0 Z " fill="#7B7B7B" transform="translate(118,411)"/>
<path d="M0 0 C3.3 0 6.6 0 10 0 C10.08441199 5.48677955 9.92037377 10.59280411 9 16 C5.04 16 1.08 16 -3 16 C-1.125 4.5 -1.125 4.5 0 0 Z " fill="#4B142F" transform="translate(499,439)"/>
<path d="M0 0 C0.33 0 0.66 0 1 0 C1 16.5 1 33 1 50 C7.27 50 13.54 50 20 50 C20.6496875 47.2465625 20.6496875 47.2465625 21.3125 44.4375 C22.49247598 39.6895014 23.89602708 35.40832421 26 31 C26.33 31 26.66 31 27 31 C27 37.27 27 43.54 27 50 C26.34 50 25.68 50 25 50 C24.67 48.68 24.34 47.36 24 46 C23.01 48.475 23.01 48.475 22 51 C14.74 51 7.48 51 0 51 C0 34.17 0 17.34 0 0 Z " fill="#886476" transform="translate(184,431)"/>
<path d="M0 0 C0.33 0 0.66 0 1 0 C3.28460451 11.52039242 5.15021942 23.07103558 6.78979492 34.69970703 C7.18722324 37.49805129 7.60035965 40.29380737 8.01367188 43.08984375 C9.55549763 53.81842566 10.39075359 64.15538175 10 75 C9.67 75 9.34 75 9 75 C7.57851257 67.71315179 6.78743763 60.55342925 6.39038086 53.14111328 C5.85320669 43.68281062 4.61352037 34.41170344 2.4375 25.1875 C0.54406878 16.85831519 0.27970776 8.50697387 0 0 Z " fill="#C63A82" transform="translate(243,236)"/>
<path d="M0 0 C0.33 0 0.66 0 1 0 C1.21304418 5.22845934 0.50804413 9.70379529 -0.96875 14.68359375 C-1.26839661 15.73414696 -1.26839661 15.73414696 -1.57409668 16.80592346 C-2.20746023 19.01903189 -2.85348228 21.22820286 -3.5 23.4375 C-3.93443926 24.94702254 -4.3680413 26.45678631 -4.80078125 27.96679688 C-5.85600072 31.64793606 -6.92829816 35.32346729 -8 39 C-2.72 39.99 2.56 40.98 8 42 C8.99 38.04 9.98 34.08 11 30 C11.33 30 11.66 30 12 30 C12.15569823 39.18619583 12.15569823 39.18619583 11 43 C8.36561089 44.31719456 6.73214431 43.92300507 3.8125 43.625 C2.8328125 43.52574219 1.853125 43.42648438 0.84375 43.32421875 C-2.45098524 42.94858273 -5.72347611 42.50968149 -9 42 C-10.55036713 37.20795615 -9.20114296 33.47206535 -7.6875 28.875 C-5.87234967 23.08433638 -4.42474698 17.45177673 -3.46875 11.44921875 C-2.71301989 7.50052895 -1.39391425 3.76356846 0 0 Z " fill="#DE75A8" transform="translate(240,156)"/>
<path d="M0 0 C5.94 0 11.88 0 18 0 C18 5.94 18 11.88 18 18 C12.39 18 6.78 18 1 18 C0.67 15.03 0.34 12.06 0 9 C0.66 9 1.32 9 2 9 C2 11.31 2 13.62 2 16 C6.62 16 11.24 16 16 16 C16 11.38 16 6.76 16 2 C11.38 2 6.76 2 2 2 C2 3.98 2 5.96 2 8 C1.34 8 0.68 8 0 8 C0 5.36 0 2.72 0 0 Z " fill="#B1A8AC" transform="translate(563,409)"/>
<path d="M0 0 C4.95 0 9.9 0 15 0 C15.33 6.93 15.66 13.86 16 21 C16.66 20.01 17.32 19.02 18 18 C17.45144652 22.571279 16.58255197 26.67435795 15 31 C14.34 31 13.68 31 13 31 C13 21.1 13 11.2 13 1 C9.04 1 5.08 1 1 1 C1 8.92 1 16.84 1 25 C0.67 25 0.34 25 0 25 C0 16.75 0 8.5 0 0 Z " fill="#CBBBC3" transform="translate(185,431)"/>
<path d="M0 0 C-1.98 0.66 -3.96 1.32 -6 2 C-6 13.55 -6 25.1 -6 37 C-6.66 37 -7.32 37 -8 37 C-8.01458252 35.95021973 -8.02916504 34.90043945 -8.04418945 33.81884766 C-8.10207993 29.93096526 -8.17931206 26.04366774 -8.26245117 22.15625 C-8.29574435 20.47242715 -8.32376256 18.78849152 -8.34643555 17.10449219 C-8.37990205 14.68635914 -8.43221036 12.26926376 -8.48828125 9.8515625 C-8.49467117 9.0963028 -8.5010611 8.34104309 -8.50764465 7.56289673 C-8.53980318 5.21354099 -8.53980318 5.21354099 -9 2 C-9.99 1.34 -10.98 0.68 -12 0 C-10.37585622 -0.19477739 -8.75063577 -0.38059458 -7.125 -0.5625 C-6.22007812 -0.66691406 -5.31515625 -0.77132813 -4.3828125 -0.87890625 C-2 -1 -2 -1 0 0 Z " fill="#72616A" transform="translate(357,380)"/>
<path d="M0 0 C1.60332791 -0.08121924 3.20784026 -0.13929134 4.8125 -0.1875 C6.15248047 -0.23970703 6.15248047 -0.23970703 7.51953125 -0.29296875 C10 0 10 0 11.80078125 1.32421875 C13.65747311 3.91874907 13.38675552 5.90595582 13 9 C11.9375 10.875 11.9375 10.875 10 12 C6.3125 12.1875 6.3125 12.1875 3 12 C2.34 10.68 1.68 9.36 1 8 C1.99 8 2.98 8 4 8 C4 8.66 4 9.32 4 10 C5.98 10 7.96 10 10 10 C10 8.02 10 6.04 10 4 C7.525 3.01 7.525 3.01 5 2 C5.33 3.32 5.66 4.64 6 6 C4.33388095 6.042721 2.66617115 6.04063832 1 6 C0 5 0 5 -0.0625 2.4375 C-0.041875 1.633125 -0.02125 0.82875 0 0 Z " fill="#666666" transform="translate(342,362)"/>
<path d="M0 0 C5.94 0 11.88 0 18 0 C18 5.94 18 11.88 18 18 C16 16 16 16 15.8046875 12.7421875 C15.86979167 9.16145833 15.93489583 5.58072917 16 2 C11.38 2 6.76 2 2 2 C1.67 7.28 1.34 12.56 1 18 C0.67 18 0.34 18 0 18 C0 12.06 0 6.12 0 0 Z " fill="#A8979F" transform="translate(116,409)"/>
<path d="M0 0 C3.63 0 7.26 0 11 0 C11 2.64 11 5.28 11 8 C10.67 8 10.34 8 10 8 C10 5.69 10 3.38 10 1 C7.03 1 4.06 1 1 1 C1 3.31 1 5.62 1 8 C0.34 8 -0.32 8 -1 8 C-1.33 11.63 -1.66 15.26 -2 19 C-7.28 19 -12.56 19 -18 19 C-17.67 16.69 -17.34 14.38 -17 12 C-15.875 15.75 -15.875 15.75 -17 18 C-12.38 18 -7.76 18 -3 18 C-2.87625 16.14375 -2.7525 14.2875 -2.625 12.375 C-2.2654226 7.96626844 -1.71613102 4.11871445 0 0 Z " fill="#7F596B" transform="translate(494,463)"/>
<path d="M0 0 C0.33 0 0.66 0 1 0 C1.15569823 9.18619583 1.15569823 9.18619583 0 13 C-2.63438911 14.31719456 -4.26785569 13.92300507 -7.1875 13.625 C-8.1671875 13.52574219 -9.146875 13.42648438 -10.15625 13.32421875 C-13.45098524 12.94858273 -16.72347611 12.50968149 -20 12 C-20.33 10.35 -20.66 8.7 -21 7 C-20.67 7.99 -20.34 8.98 -20 10 C-14.39 10.66 -8.78 11.32 -3 12 C-2.01 8.04 -1.02 4.08 0 0 Z " fill="#BD4E83" transform="translate(251,186)"/>
<path d="M0 0 C5.61 0.33 11.22 0.66 17 1 C17 5.95 17 10.9 17 16 C16.67 16 16.34 16 16 16 C16 11.38 16 6.76 16 2 C11.71 2 7.42 2 3 2 C3 6.62 3 11.24 3 16 C2.67 16 2.34 16 2 16 C2 13.69 2 11.38 2 9 C1.34 9 0.68 9 0 9 C0 6.03 0 3.06 0 0 Z " fill="#9C979A" transform="translate(563,490)"/>
<path d="M0 0 C0.72822464 0.00424484 1.45644928 0.00848969 2.20674133 0.01286316 C4.53013252 0.02964142 6.85265275 0.0672902 9.17578125 0.10546875 C10.75194059 0.12051678 12.32811354 0.13420498 13.90429688 0.14648438 C17.76596002 0.1795419 21.62697303 0.23131681 25.48828125 0.29296875 C25.15828125 2.93296875 24.82828125 5.57296875 24.48828125 8.29296875 C24.15828125 8.29296875 23.82828125 8.29296875 23.48828125 8.29296875 C23.81828125 5.98296875 24.14828125 3.67296875 24.48828125 1.29296875 C14.25828125 1.29296875 4.02828125 1.29296875 -6.51171875 1.29296875 C-7.17171875 2.61296875 -7.83171875 3.93296875 -8.51171875 5.29296875 C-9.17171875 5.29296875 -9.83171875 5.29296875 -10.51171875 5.29296875 C-10.84171875 6.28296875 -11.17171875 7.27296875 -11.51171875 8.29296875 C-11.17105734 5.77207432 -10.83711386 3.79301304 -9.43823242 1.64331055 C-6.48875591 -0.42405158 -3.46720269 -0.07600425 0 0 Z " fill="#D3C6CC" transform="translate(295.51171875,430.70703125)"/>
<path d="M0 0 C0.33 0 0.66 0 1 0 C1 6.27 1 12.54 1 19 C1.66 19 2.32 19 3 19 C3.33 18.34 3.66 17.68 4 17 C3.74379316 18.6065676 3.46944129 20.2102483 3.1875 21.8125 C3.03667969 22.70582031 2.88585937 23.59914063 2.73046875 24.51953125 C2 27 2 27 -1 30 C-0.67 20.1 -0.34 10.2 0 0 Z " fill="#64354C" transform="translate(227,431)"/>
<path d="M0 0 C0.75042068 0.00424484 1.50084137 0.00848969 2.27400208 0.01286316 C4.66871151 0.02964425 7.06257659 0.06729385 9.45703125 0.10546875 C11.08136805 0.1205164 12.70571805 0.13420466 14.33007812 0.14648438 C18.31022073 0.1795457 22.28973288 0.23132281 26.26953125 0.29296875 C26.26953125 0.62296875 26.26953125 0.95296875 26.26953125 1.29296875 C15.37953125 1.29296875 4.48953125 1.29296875 -6.73046875 1.29296875 C-7.39046875 2.61296875 -8.05046875 3.93296875 -8.73046875 5.29296875 C-10.35546875 7.04296875 -10.35546875 7.04296875 -11.73046875 8.29296875 C-11.39080274 5.77944027 -11.05256914 3.79433533 -9.6706543 1.64331055 C-6.66186364 -0.45076534 -3.53040298 -0.0750651 0 0 Z " fill="#D2C6CC" transform="translate(390.73046875,430.70703125)"/>
<path d="M0 0 C0.89749822 3.0682638 1.11711768 5.79269976 1.09765625 8.984375 C1.09443359 9.91894531 1.09121094 10.85351562 1.08789062 11.81640625 C1.07951172 12.78449219 1.07113281 13.75257813 1.0625 14.75 C1.05798828 15.73355469 1.05347656 16.71710938 1.04882812 17.73046875 C1.03706483 20.15370791 1.02062684 22.57682273 1 25 C-0.98510058 23.36292167 -1.91847304 22.49903853 -2.34057617 19.9152832 C-2.32486572 19.13499756 -2.30915527 18.35471191 -2.29296875 17.55078125 C-2.28330078 16.70322266 -2.27363281 15.85566406 -2.26367188 14.98242188 C-2.23853516 14.10134766 -2.21339844 13.22027344 -2.1875 12.3125 C-2.17396484 11.41982422 -2.16042969 10.52714844 -2.14648438 9.60742188 C-2.11114079 7.40433834 -2.06180493 5.20247418 -2 3 C-1.34 3 -0.68 3 0 3 C0 2.01 0 1.02 0 0 Z " fill="#BA2C84" transform="translate(193,324)"/>
<path d="M0 0 C0.33 0 0.66 0 1 0 C3.11094574 9.78825436 4.465841 18.92403162 4 29 C3.67 29 3.34 29 3 29 C2.49045093 25.66805501 1.99412986 22.33426366 1.5 19 C1.35691406 18.06542969 1.21382812 17.13085938 1.06640625 16.16796875 C0.2649739 10.71059609 -0.15609327 5.51529539 0 0 Z " fill="#B53B76" transform="translate(243,236)"/>
<path d="M0 0 C-1.36125 0.61875 -1.36125 0.61875 -2.75 1.25 C-5.95304817 2.97471825 -7.86544273 4.07486596 -10 7 C-10.61720451 9.70221468 -10.81446089 12.21691329 -11 15 C-13 13 -13 13 -13.375 9.6875 C-12.93803996 5.39072628 -12.1069699 3.93902558 -9 1 C-5.63069948 -0.85311529 -3.63422304 -1.34600853 0 0 Z " fill="#78164E" transform="translate(287,368)"/>
<path d="M0 0 C0 0.33 0 0.66 0 1 C-2.97 1 -5.94 1 -9 1 C-9.66 2.32 -10.32 3.64 -11 5 C-12.98 5.99 -12.98 5.99 -15 7 C-14.34 10.3 -13.68 13.6 -13 17 C-16 14 -16 14 -16.5625 10.1875 C-16.41172505 6.92473005 -15.72837997 5.00856364 -13.625 2.5 C-9.59239284 -1.08669387 -5.09899175 -0.54416117 0 0 Z " fill="#C13B7D" transform="translate(171,202)"/>
<path d="M0 0 C0.33 0 0.66 0 1 0 C1 4.62 1 9.24 1 14 C1.66 14 2.32 14 3 14 C2.25 20.625 2.25 20.625 0 24 C0 16.08 0 8.16 0 0 Z " fill="#56233C" transform="translate(200,431)"/>
<path d="M0 0 C0.33 0 0.66 0 1 0 C1.20705288 5.07279555 0.77935998 9.22382322 -1 14 C-1.99 14.66 -2.98 15.32 -4 16 C-3.39891424 10.34979382 -1.92471317 5.33835539 0 0 Z " fill="#B25F87" transform="translate(240,156)"/>
<path d="M0 0 C0.66 0.33 1.32 0.66 2 1 C1.28972656 1.69867188 0.57945312 2.39734375 -0.15234375 3.1171875 C-1.07144531 4.02726563 -1.99054688 4.93734375 -2.9375 5.875 C-4.31228516 7.23238281 -4.31228516 7.23238281 -5.71484375 8.6171875 C-8.01187627 10.77682255 -8.01187627 10.77682255 -9 13 C-9.66 13 -10.32 13 -11 13 C-9.63422544 8.71506993 -7.79318655 6.56854295 -4.375 3.6875 C-3.55773437 2.99011719 -2.74046875 2.29273438 -1.8984375 1.57421875 C-0.95871094 0.79498047 -0.95871094 0.79498047 0 0 Z " fill="#C983A5" transform="translate(256,134)"/>
<path d="M0 0 C0.66 0.33 1.32 0.66 2 1 C0.38113585 2.67262717 -1.2452729 4.33795537 -2.875 6 C-3.77992188 6.928125 -4.68484375 7.85625 -5.6171875 8.8125 C-8 11 -8 11 -10 11 C-8.55218207 7.55571735 -6.72305391 5.63869038 -3.875 3.25 C-3.15054687 2.63640625 -2.42609375 2.0228125 -1.6796875 1.390625 C-0.84824219 0.70226562 -0.84824219 0.70226562 0 0 Z " fill="#58263F" transform="translate(336,91)"/>
<path d="M0 0 C0.99 0.33 1.98 0.66 3 1 C1.88121617 2.17262904 0.75476949 3.33795138 -0.375 4.5 C-1.00148438 5.1496875 -1.62796875 5.799375 -2.2734375 6.46875 C-4 8 -4 8 -6 8 C-6 8.66 -6 9.32 -6 10 C-6.66 9.67 -7.32 9.34 -8 9 C-6.85459775 7.68712379 -5.70866567 6.37470979 -4.5625 5.0625 C-3.92441406 4.33160156 -3.28632813 3.60070312 -2.62890625 2.84765625 C-1.77458541 1.87860647 -0.91348825 0.91348825 0 0 Z " fill="#D3C3CB" transform="translate(319,80)"/>
<path d="M0 0 C0.66 0 1.32 0 2 0 C2.17835515 4.54805635 1.99785435 7.8794254 0 12 C-0.33 12 -0.66 12 -1 12 C-1.14285714 3.42857143 -1.14285714 3.42857143 0 0 Z " fill="#ACA4A8" transform="translate(572,427)"/>
<path d="M0 0 C0.99 0 1.98 0 3 0 C3 0.66 3 1.32 3 2 C4.98 2 6.96 2 9 2 C9.33 1.34 9.66 0.68 10 0 C9.67 1.32 9.34 2.64 9 4 C6.69 4 4.38 4 2 4 C1.34 2.68 0.68 1.36 0 0 Z " fill="#6D6D6D" transform="translate(343,370)"/>
<path d="M0 0 C0.99 0.33 1.98 0.66 3 1 C2.40138258 3.35171131 1.73075648 5.6859378 1 8 C0.01 8.495 0.01 8.495 -1 9 C-0.67 6.03 -0.34 3.06 0 0 Z " fill="#70455A" transform="translate(227,452)"/>
<path d="M0 0 C1.46534385 3.80989402 0.55203911 6.3241179 -1 10 C-1.99 10.495 -1.99 10.495 -3 11 C-2.32829194 7.1936543 -1.27253436 3.64793184 0 0 Z " fill="#856173" transform="translate(237,464)"/>
<path d="M0 0 C1.5625 1.6875 1.5625 1.6875 3 4 C2.6875 6.75 2.6875 6.75 2 9 C1.34 9 0.68 9 0 9 C0 6.03 0 3.06 0 0 Z " fill="#C6B5BE" transform="translate(225,456)"/>
</svg>
